<svg version="1.2" baseProfile="tiny" viewBox="0 0 49.25 56.0" xmlns:xlink="http://www.w3.org/1999/xlink" xmlns="http://www.w3.org/2000/svg">
<path style="fill:#ffffff;" d="M49.1801,49.915C49.2209,49.8053,49.25,49.6899,49.25,49.5678L49.25,6.431C49.25,6.309,49.2209,6.1953,49.1801,6.0838C49.1692,6.053,49.1559,6.025,49.1412,5.9948C49.0998,5.9119,49.0491,5.8369,48.988,5.7669C48.9712,5.749,48.9589,5.7288,48.9412,5.712C48.8678,5.6409,48.7851,5.5782,48.689,5.5311C48.6728,5.5227,48.657,5.5171,48.6408,5.5098C48.6398,5.5098,48.6398,5.5093,48.6388,5.5093C41.1198,1.8542,33.0418,0.0,24.625,0.0C16.2092,0.0,8.1312,1.8542,0.6112,5.5093C0.6112,5.5093,0.6102,5.5093,0.6092,5.5093C0.594,5.5182,0.5772,5.5238,0.5619,5.5322C0.4659,5.5782,0.3841,5.6409,0.3098,5.712C0.2921,5.7288,0.2788,5.7501,0.263,5.768C0.2009,5.8369,0.1502,5.913,0.1088,5.9959C0.0951,6.025,0.0818,6.053,0.0699,6.0838C0.0291,6.1942,0.0,6.309,0.0,6.431L0.0,49.569C0.0,49.691,0.0291,49.8053,0.0699,49.9162C0.0808,49.947,0.0941,49.975,0.1088,50.0052C0.1502,50.0881,0.2009,50.1631,0.262,50.2331C0.2788,50.2522,0.2911,50.2712,0.3088,50.2891C0.3822,50.3602,0.4649,50.423,0.561,50.47C8.0942,54.1391,16.19,56.0,24.625,56.0C33.061,56.0,41.1572,54.1391,48.6881,50.4678C48.7841,50.4213,48.8668,50.3591,48.9412,50.2858C48.9579,50.269,48.9698,50.2499,48.987,50.2309C49.0491,50.1631,49.0988,50.0858,49.1402,50.003C49.1549,49.975,49.1692,49.9458,49.1801,49.915M2.0,48.5682L2.0,7.4312L47.25,7.4312L47.25,48.5688L2.0,48.5688M43.374,5.4309L5.878,5.4309C11.8461,3.1651,18.1279,1.9998,24.625,1.9998C31.123,1.9998,37.4049,3.1651,43.374,5.4309M5.876,50.568L43.375,50.568C37.4059,52.8349,31.123,54.0002,24.625,54.0002C18.127,54.0002,11.8451,52.8349,5.876,50.568Z"/>
</svg>